<svg xmlns="http://www.w3.org/2000/svg" viewBox="0 0 200 200" version="1.1" width="200" height="200">
	<path fill="#95c11f" stroke="#95c11f" stroke-opacity="0" d="M114.492 44.049a55.738 55.661 0 00-11.605.99 55.964 55.887 0 0139.826 30.38h20.851a55.738 55.661 0 00-49.072-31.37zM92.45 64.81a35.256 35.207 0 00-35.043 31.601c-.076 1.195-.181 2.39-.181 3.598 0 1.209.105 2.39.181 3.597a55.95 55.873 0 00106.158 20.967h-25.117a35.208 35.16 0 11-35.578-58.201 35.256 35.207 0 00-10.42-1.562z" />
	<path fill="#004899" d="M148.32 96.402a56.132 56.054 0 00-45.45-51.364 56.029 55.952 0 100 109.917A55.988 55.91 0 0157.407 103.6c-.076-1.194-.182-2.39-.182-3.598 0-1.208.106-2.39.182-3.597a35.208 35.16 0 1145.463 37.207 35.174 35.125 0 0035.577-9.039h4.266a55.697 55.62 0 005.606-20.97c.079-1.194.185-2.389.185-3.597 0-1.209-.106-2.39-.185-3.598" />
	<path fill="#95c11f" d="M94.703 0l-.055 17.492 11.819.033.006-2.757-8.678-.024.014-4.97 7.564.023.006-2.608-7.56-.023.01-4.398 8.683.025.01-2.756L94.702 0zM81.48 1.717l-3.14.537 2.956 17.248L92.7 17.549l-.465-2.717-8.265 1.414-2.492-14.53zm-15.78 4.332l-3.011 1.035 5.699 16.545 10.941-3.758-.898-2.605-7.932 2.724L65.699 6.05zm-8.484 3.338l-10.358 5.687 8.44 15.324 10.355-5.687-1.33-2.414-7.605 4.176-2.4-4.35 6.628-3.643-1.258-2.287-6.628 3.641-2.123-3.852 7.609-4.177-1.33-2.418zm-16.278 9.552l-2.414 2.041 4.514 5.329-6.074 5.134-4.516-5.33-2.414 2.035 11.309 13.354 2.412-2.037-5.027-5.936 6.08-5.134 5.025 5.939 2.414-2.037-11.309-13.358zM25.724 32.71l-6.875 8.633 5.894 6.65 7.815 4.237 6.877-8.633-2.164-1.717-5.282 6.63-5.342-2.907-4.04-4.547 5.28-6.63-2.163-1.716zm-11.68 15.742l-5.88 11.436 7.083 5.38 8.512 2.618 5.865-11.436-7.072-5.388-8.508-2.61zm1.14 3.502l5.965 1.83 4.967 3.783-3.517 6.827-5.953-1.858-4.977-3.754 3.516-6.828zM5.159 67.843L1.941 79.353l16.87 4.703.824-2.946-6.639-1.845 1.33-4.762 7.461-1.098.87-3.105-8.733 1.28-2.955-3.194-5.81-.541zm1.805 3.163l2.906.238 2.05 2.25-1.417 5.072-5.248-1.46 1.709-6.1zm10.443 22.297L0 98.359l.145 6.827 17.603 4.369-.064-3.057-4.903-1.215-.158-7.51 4.848-1.416-.065-3.054zm-7.367 5.232l.127 6.111-7.602-1.867-.044-2.049 7.52-2.195zm7.9 11.475l-2.7.564 1.716 8.196-14.44 3.023.653 3.111 17.145-3.584-2.374-11.31z" />
	<path fill="#004899" d="M119.873 1.781l-.748 2.68 5.295 1.475-3.96 14.164 3.046.853 3.955-14.17 5.271 1.47.752-2.679-13.611-3.793zm18.613 5.824l-7.65 15.737 10.637 5.158 1.203-2.484-7.815-3.787 2.176-4.471 6.805 3.297 1.142-2.346-6.806-3.3 1.924-3.956 7.812 3.785 1.205-2.478-10.633-5.155zm15.932 8.327l-10.479 14.025 2.456 1.822 4.123-5.515 3.968 2.966-1.668 7.346 2.594 1.932 1.947-8.596 4.055-1.6 2.598-5.234-9.594-7.146zm.904 3.904l5.088 3.793-1.271 2.63-2.846 1.106-4.23-3.148 3.26-4.381zm14.807 8.687l-13.076 11.65 2.05 2.28 5.145-4.584 3.291 3.697-3.105 6.866 2.152 2.41 3.627-8.033 4.29-.756 3.597-4.61-7.971-8.92zm.111 4.008l4.229 4.729-1.774 2.32-3.007.516-3.514-3.934 4.066-3.63zm12.422 11.344L167.99 53.43l1.74 2.666 14.672-9.555-1.74-2.666zm4.633 7.059l-2.522 1.181 2.334 4.977-13.345 6.244 1.343 2.857 13.346-6.244 2.32 4.95 2.528-1.18-6.004-12.785zm7.93 18.392l-8.887.631-8.125 3.602 3.127 12.459 8.887-.608 8.125-3.629-3.127-12.455zm-1.922 3.12l1.87 7.449-5.694 2.535-6.227.433-1.871-7.443 5.701-2.518 6.22-.457zm5.955 16.929l-17.446 1.563.286 3.17 17.445-1.565-.285-3.168zm-16.737 8.88l-.193 3.028 6.873.42-.3 4.934-7.061 2.634-.195 3.223 8.261-3.072 3.559 2.506 5.81-.684.725-11.928-17.479-1.06zm9.268 3.602l5.44.34-.387 6.323-2.889.351-2.484-1.758.32-5.256zm-10.723 12.922l-2.949 11.432 2.674.685 2.166-8.396 4.82 1.238-1.886 7.317 2.529.652 1.887-7.316 4.265 1.1-2.166 8.396 2.672.687 2.951-11.43-16.963-4.365zM25.344 135.895l-2.39 1.382 4.61 7.934-.884.512-12.145-3.766-4.43 2.572 6.184 10.637 2.389-1.383-4.725-8.125.885-.512 12.129 3.745 4.433-2.575-6.056-10.421zm146.638 4.925l-6.628 9.768 14.494 9.814 6.627-9.767-2.284-1.545-4.87 7.174-4.12-2.79 4.242-6.25-2.16-1.464-4.246 6.252-3.64-2.469 4.87-7.176-2.285-1.547zm-139.177 7.442L19.36 159.465l7.569 9.058 2.123-1.767-5.563-6.654 3.819-3.184 4.843 5.803 2.006-1.67-4.846-5.803 3.381-2.816 5.56 6.654 2.12-1.766-7.568-9.058zm4.14.494l-1.19 1.836 5.005 3.232 1.19-1.83-5.005-3.238zm126.723 4.215l-2.043 2 10.441 10.656-1.277 1.254-13.988-7.2-4.836 4.731 12.254 12.504 2.047-1.996-10.446-10.66 1.244-1.217 14.004 7.18 4.858-4.744-12.258-12.508zm-121.613 6.08l-11.201 13.431 2.347 1.957 4.41-5.283 3.805 3.16-2.055 7.223 2.487 2.068 2.39-8.472 4.131-1.365 2.877-5.077-9.191-7.642zm.699 3.94l4.869 4.052-1.406 2.545-2.9.95-4.047-3.37 3.484-4.178zm106.16 3.573l-10.94 6.768 3.31 8.248 5.923 6.625 10.94-6.771-3.286-8.26-5.947-6.61zm-94.05 2.694l-5.542 6.967-2.824 8.386 11.307 6.145 5.539-6.94 2.799-8.435-11.28-6.123zm93.226.885l4.174 4.63 2.306 5.803-6.535 4.049-4.148-4.654-2.332-5.782 6.535-4.046zm-92.201 2.636l6.748 3.682-1.963 5.898-3.893 4.871-6.756-3.664 1.99-5.902 3.874-4.885zm77.894 2.494l-11.28 4.15 6.058 16.423 11.777-4.332-1.121-6.051-3.258-2.22.602-3.243-2.778-4.727zm-1.547 3.272l1.446 2.41-.393 2.104-5.441 2.004-1.59-4.315 5.978-2.203zm-55.132.684l-3.422 8.195-.414 8.87 10.777 2.419.605-2.69-8.275-1.857.295-6.07L79 182.48l8.28 1.858.605-2.693-10.781-2.416zm41.34 1.156l-11.794 1.892 2.776 17.266 3.017-.484-1.09-6.793 4.89-.784 4.1 6.309 3.194-.512-4.812-7.38 1.673-4.014-1.955-5.5zm-24.882 1.707l-5.374 17.32 3.06.111 1.496-4.82 7.522.27 1.14 4.914 3.06.113-4.068-17.658-6.835-.25zm22.772 1.25l.992 2.73-1.187 2.807-5.215.836-.856-5.37 6.266-1.003zm-20.51 1.297l2.053.076 1.766 7.625-6.11-.223 2.291-7.478zm38.487.826l2.132 1.46.578 3.073-6.474 2.39-1.799-4.874 5.563-2.05z" />
</svg>